<svg xmlns="http://www.w3.org/2000/svg" viewBox="0 0 24 24" fill="#0EA48A">
  <path d="M19.4 12.6c.3-.5.3-1.1 0-1.6l-2.2-3.8c-.3-.5-1-.8-1.5-.5s-.8 1-.5 1.5l2.2 3.8c.1.2.1.5 0 .7l-2.2 3.8c-.3.5-.2 1.2.3 1.5.5.3 1.2.2 1.5-.3l2.2-3.8zM4.6 12.6c-.3-.5-.3-1.1 0-1.6l2.2-3.8c.3-.5 1-.8 1.5-.5s.8 1 .5 1.5L6.6 12c-.1.2-.1.5 0 .7l2.2 3.8c.3.5.2 1.2-.3 1.5-.5.3-1.2.2-1.5-.3L4.6 12.6zM12 4.4c.5-.3 1.1-.3 1.6 0l3.8 2.2c.5.3.8 1 .5 1.5s-1 .8-1.5.5L12.6 6.4c-.2-.1-.5-.1-.7 0l-3.8 2.2c-.5.3-1.2.2-1.5-.3s-.2-1.2.3-1.5l3.8-2.2zM12 19.6c-.5.3-1.1.3-1.6 0l-3.8-2.2c-.5-.3-.8-1-.5-1.5s1-.8 1.5-.5l3.8 2.2c.2.1.5.1.7 0l3.8-2.2c.5-.3 1.2-.2 1.5.3s.2 1.2-.3 1.5l-3.8 2.2z"/>
</svg>
